<?xml version="1.0" encoding="UTF-8"?>
<svg id="Layer_1" data-name="Layer 1" xmlns="http://www.w3.org/2000/svg" viewBox="0 0 122.19 219.66">
  <defs>
    <style>
      .cls-1 {
        fill: #993c3c;
      }

      .cls-2 {
        fill: #4faa29;
      }
    </style>
  </defs>
  <g>
    <polygon class="cls-2" points="1.05 105.16 61.19 1 121.32 105.16 1.05 105.16"/>
    <path d="M61.19,2l29.63,51.33,29.63,51.33H1.92L31.55,53.33,61.19,2m0-2L30.69,52.83,.19,105.66H122.19l-30.5-52.83L61.19,0h0Z"/>
  </g>
  <g>
    <polygon class="cls-1" points=".87 115.16 120.38 115.16 60.62 218.66 .87 115.16"/>
    <path d="M119.51,115.66l-29.44,51-29.44,51-29.44-51L1.73,115.66H119.51m1.73-1H0l30.31,52.5,30.31,52.5,30.31-52.5,30.31-52.5h0Z"/>
  </g>
</svg>